# xmcd
#
# Track frame offsets:
#	150
#	19442
#	34304
#	51172
#	70658
#	92561
#	118105
#	139689
#	160615
#	179487
#	201857
#	226080
#	249057
#	269830
#	288491
#	313954
#	332568
#
# Disc length: 4667 seconds
#
# Revision: 0
# Processed by: cddbd v1.5.2PL0 Copyright (c) Steve Scherf et al.
# Submitted via: EasyCDDAExtractor 11.0.3.1
#
DISCID=f7123911
DTITLE=Various Artist - Steppin' Music Vol 7
DYEAR=2007
DGENRE=R&B
TTITLE0=Janet Jackson - Can't Be Good
TTITLE1=Chante Moore - Bitter
TTITLE2=Unknown - Get Yo Step On
TTITLE3=K Jon - Out There On the Ocean
TTITLE4=Jay-Z - American Dreamin'
TTITLE5=Erykah Badu - Me
TTITLE6=Dwele - Possible
TTITLE7=Boy George - Mistake Number 3
TTITLE8=Lisa Stansfield - A Little More Love
TTITLE9=Rashaan Patterson - Spend The Night
TTITLE10=Aaron Akins - Let There Be Love
TTITLE11=Steven Butler and Ron Hayes - Change
TTITLE12=Angie Stone - Sit Down
TTITLE13=Anthony Hamilton - Clearly
TTITLE14=Steven Butler and Ron Haynes - Windy City
TTITLE15=Marzette Griffith - Shake
TTITLE16=Luther Vandross - Can I Take You Out
EXTD=
EXTT0=
EXTT1=
EXTT2=
EXTT3=
EXTT4=
EXTT5=
EXTT6=
EXTT7=
EXTT8=
EXTT9=
EXTT10=
EXTT11=
EXTT12=
EXTT13=
EXTT14=
EXTT15=
EXTT16=
PLAYORDER=
